<svg width="247" height="41" viewBox="0 0 247 41" fill="none" xmlns="http://www.w3.org/2000/svg">
<rect width="246.924" height="40.7829" rx="20.3914" fill="black"/>
<rect x="10" y="9.3916" width="35" height="22" rx="11" fill="#D1D3D6"/>
<path d="M73.7263 27.802H69.0347L70.5031 20.4245H64.3432L62.8748 27.802H58.1475L61.9079 9H66.671L65.2385 16.0552H71.3984L72.7951 9H77.5225L73.7263 27.802Z" fill="#D1D3D6"/>
<path d="M84.7568 25.8681H84.6136C83.9331 27.6588 82.035 27.9811 80.6383 27.9811C77.809 27.9811 76.3049 27.2648 76.9853 23.8984C77.6299 20.7468 79.349 19.744 82.2857 19.744C83.4317 19.744 85.2224 19.744 85.3656 21.2124H85.5447L85.9745 19.1352C86.2252 17.9175 86.2968 17.1296 84.5061 17.1296C83.5033 17.1296 82.8229 17.3803 82.5722 18.5622H78.5253C79.349 14.4794 82.1424 14.4794 85.0433 14.4794C89.1977 14.4794 90.8093 15.0525 89.9139 19.565L88.2665 27.802H84.2196L84.7568 25.8681ZM81.0322 23.7551C80.7457 25.1877 81.8917 25.1877 82.5006 25.1877C84.1838 25.1877 84.7568 24.9728 85.0433 23.5761C85.2582 22.4658 84.3987 22.3584 83.0736 22.3584C82.0708 22.3584 81.2829 22.5375 81.0322 23.7551Z" fill="#D1D3D6"/>
<path d="M93.4953 14.6227H97.578L97.0766 16.6999H97.2557C98.0794 14.9092 99.4761 14.4794 101.231 14.4794C104.239 14.4794 105.636 15.8404 104.956 19.3143L104.347 22.3226C103.559 26.3337 101.911 27.9453 98.545 27.9453C97.0766 27.9453 95.8231 27.623 95.5366 25.7965H95.3576L93.8176 33.4605H89.7707L93.5311 14.5869L93.4953 14.6227ZM96.2529 21.2482C95.8232 23.4328 95.7157 24.6505 97.6138 24.6505C99.2612 24.6505 99.9417 24.2207 100.551 21.2482C101.052 18.6696 101.159 17.8101 99.0105 17.8101C97.2915 17.8101 96.8259 18.4547 96.2887 21.2482" fill="#D1D3D6"/>
<path d="M108.071 14.6227H112.118L111.617 16.6999H111.796C112.62 14.9092 114.016 14.4794 115.771 14.4794C118.744 14.4794 120.176 15.8404 119.496 19.3143L118.887 22.3226C118.063 26.3337 116.452 27.9453 113.085 27.9453C111.617 27.9453 110.363 27.623 110.077 25.7965H109.898L108.358 33.4605H104.275L108.071 14.5869V14.6227ZM110.793 21.2482C110.363 23.4328 110.256 24.6505 112.154 24.6505C113.837 24.6505 114.482 24.2207 115.091 21.2482C115.592 18.6696 115.664 17.8101 113.551 17.8101C111.832 17.8101 111.402 18.4547 110.829 21.2482" fill="#D1D3D6"/>
<path d="M128.091 28.9481C126.694 32.3861 125.262 33.6396 121.824 33.6396C121.358 33.6396 120.928 33.6038 120.463 33.568L121.072 30.5955C121.286 30.5955 121.537 30.6313 121.788 30.6313C123.471 30.6313 124.08 29.3062 124.474 27.802H122.289L121.251 14.6227H125.512L125.835 25.3309H125.871L130.025 14.6227H134.179L128.198 28.9481H128.091Z" fill="#D1D3D6"/>
<path d="M142.775 27.9453H138.083L141.843 9.10744H149.83L151.979 23.5761H152.158L154.772 9.10744H159.499L155.739 27.9453H147.681L145.604 13.4767H145.389L142.775 27.9453Z" fill="#D1D3D6"/>
<path d="M170.852 23.5402C170.458 25.51 169.599 26.656 168.417 27.3006C167.235 27.9453 165.695 28.0885 163.869 28.0885C158.998 28.0885 158.174 26.2979 159.177 21.3556C160.216 16.3059 161.612 14.6227 166.59 14.6227C171.246 14.6227 172.356 16.0194 171.282 21.3556L171.139 22.0719H163.117C162.651 24.3639 162.83 25.0802 164.513 25.0802C165.767 25.0802 166.59 24.937 166.877 23.5402H170.852ZM167.557 19.7082C167.951 17.7385 167.307 17.631 165.91 17.631C164.477 17.631 163.94 17.9892 163.546 19.7082H167.557Z" fill="#D1D3D6"/>
<path d="M180.2 19.8873C180.379 18.9561 180.629 17.9175 179.555 17.9175C178.337 17.9175 177.836 18.9561 177.621 20.0305L176.009 27.9453H171.962L174.577 14.766H178.516L178.122 16.6999H178.301C179.125 15.1957 180.307 14.6227 181.847 14.6227C184.676 14.6227 184.39 17.0938 183.924 19.4933L183.745 20.5319H180.092L180.235 19.9231L180.2 19.8873Z" fill="#D1D3D6"/>
<path d="M196.136 27.9453H192.054L192.627 25.6532H192.448C191.588 27.623 190.227 28.0885 188.437 28.0885C185.428 28.0885 184.032 26.7276 184.712 23.2537L185.321 20.2454C186.109 16.2343 187.756 14.6227 191.123 14.6227C192.627 14.6227 193.844 14.945 194.167 16.6641H194.346L195.85 9.14325H199.897L196.136 27.9453ZM190.514 24.7579C192.161 24.7579 192.806 24.3281 193.379 21.3556C193.88 18.8129 194.023 17.9175 191.875 17.9175C189.833 17.9175 189.654 18.7412 189.117 21.3556C188.472 24.5788 188.831 24.7579 190.514 24.7579Z" fill="#D1D3D6"/>
<path d="M202.475 27.9453H198.393L201.043 14.766H205.126L202.475 27.9453ZM205.555 12.4381H201.508L202.153 9.10744H206.2L205.52 12.4381H205.555Z" fill="#D1D3D6"/>
<path d="M211.465 14.766L210.999 17.2371H211.142C212.145 15.1241 213.434 14.6227 215.368 14.6227C218.09 14.6227 219.057 16.0194 218.484 18.8487L216.658 27.9453H212.611L214.258 19.8515C214.473 18.5622 214.258 17.9533 212.969 17.9533C211.142 17.9533 210.605 19.0994 210.283 20.711L208.814 27.9453H204.767L207.418 14.766H211.465Z" fill="#D1D3D6"/>
<path d="M222.961 29.0913C222.817 29.8076 222.961 30.2373 223.247 30.4164C223.534 30.5955 223.963 30.6313 224.465 30.6313C226.22 30.6313 226.649 30.309 227.008 28.4825L227.545 25.7607H227.402C226.542 27.3723 225.145 27.9095 223.57 27.9095C219.2 27.9095 219.379 25.0802 220.131 21.3198C220.991 17.058 221.994 14.5869 226.256 14.5869C228.01 14.5869 229.192 15.0167 229.264 17.0938H229.407L229.729 14.766H233.776L231.234 27.3723C230.267 32.2787 228.691 33.7829 223.928 33.7829C219.523 33.7829 218.377 33.2815 219.057 29.1271H222.889L222.961 29.0913ZM228.44 21.3556C229.049 18.3831 228.691 17.9175 227.008 17.9175C225.11 17.9175 224.859 18.3115 224.214 21.3556C223.677 24.0774 223.892 24.6146 225.647 24.6146C227.616 24.6146 228.01 23.6119 228.44 21.3556Z" fill="#D1D3D6"/>
<g clip-path="url(#clip0_223_983)">
<path d="M50 20.5C50 9.4543 41.0457 0.5 30 0.5C18.9543 0.5 10 9.4543 10 20.5C10 31.5457 18.9543 40.5 30 40.5C41.0457 40.5 50 31.5457 50 20.5Z" fill="black"/>
<mask id="mask0_223_983" style="mask-type:luminance" maskUnits="userSpaceOnUse" x="12" y="3" width="39" height="34">
<path d="M50.3892 3H12V36.6639H50.3892V3Z" fill="white"/>
</mask>
<g mask="url(#mask0_223_983)">
<path d="M48.713 18.2569C48.9337 18.2569 49.1024 18.2513 49.2692 18.2569C49.5633 18.26 49.8444 18.3781 50.0524 18.586C50.2603 18.7941 50.3784 19.0751 50.3816 19.3692C50.3909 20.6478 50.3909 21.9261 50.3816 23.2041C50.3816 23.9252 49.8968 24.409 49.1765 24.4406C49.0384 24.4461 48.8984 24.4406 48.7344 24.4406C48.6973 24.7261 48.6509 25.007 48.6268 25.2906C48.594 25.6067 48.448 25.9003 48.2156 26.1171C47.9831 26.3338 47.6802 26.4591 47.3625 26.4697C46.748 26.5012 46.1296 26.4818 45.5142 26.4697C45.352 26.4525 45.1917 26.4214 45.0348 26.377C43.9568 29.8392 41.9045 32.5737 38.8381 34.4981C36.3205 36.0739 33.5452 36.7896 30.5706 36.6459C27.519 36.4985 24.7761 35.4937 22.366 33.6046C19.9559 31.7153 18.3412 29.3136 17.4411 26.4085C17.1143 26.526 16.7686 26.5819 16.4215 26.5736C15.9904 26.5587 15.5575 26.5828 15.1237 26.5661C14.6028 26.5457 13.9743 26.212 13.8148 25.5956C13.78 25.4631 13.7598 25.3273 13.7546 25.1905C13.7453 24.9003 13.7546 24.6092 13.7546 24.2765C13.5822 24.2765 13.4329 24.2765 13.2828 24.2765C12.506 24.2664 12.0138 23.788 12.0091 23.014C12.0017 21.7978 12.0221 20.5807 12.0008 19.3636C11.9887 18.661 12.5885 18.128 13.2466 18.0844C13.3986 18.0751 13.5516 18.0844 13.6925 18.0844C13.7184 18.0381 13.7472 18.0112 13.7453 17.9861C13.674 16.8618 14.0104 15.8087 14.358 14.7678C14.977 12.9188 15.9338 11.2008 17.1797 9.70096C18.4786 8.12142 20.0361 6.77365 21.7858 5.71506C22.8749 5.05879 24.0281 4.51526 25.2276 4.09287C26.1337 3.77868 27.058 3.5199 27.9955 3.31794C28.5888 3.18446 29.2107 3.18908 29.8124 3.0899C30.5632 2.96754 31.3158 2.9972 32.0667 3.02316C32.9515 3.05605 33.832 3.16427 34.6983 3.34666C35.6242 3.53476 36.5338 3.79511 37.419 4.12532C38.3945 4.49191 39.334 4.94774 40.2258 5.48702C41.6349 6.33646 42.9213 7.37435 44.0495 8.57193C45.0452 9.63773 45.916 10.8135 46.6451 12.0768C47.406 13.3746 47.9622 14.765 48.4156 16.1971C48.5953 16.7654 48.739 17.3437 48.6936 17.9509C48.6927 18.0371 48.7047 18.127 48.713 18.2569ZM44.195 22.3244C44.195 21.4974 44.1886 20.6752 44.0162 19.8549C43.7882 18.7174 43.4172 17.6133 42.9121 16.5688C42.377 15.4977 41.7029 14.502 40.9071 13.6072C40.3173 12.9393 39.6565 12.3374 38.9364 11.8126C37.7141 10.9103 36.3413 10.2324 34.8819 9.81035C33.0292 9.25444 31.0734 9.13296 29.1663 9.45538C28.0959 9.62463 27.0517 9.93059 26.0591 10.3656C24.0616 11.2253 22.315 12.5779 20.9831 14.2968C19.934 15.638 19.1587 17.1721 18.7009 18.812C18.3736 20.0063 18.2077 21.239 18.2077 22.4773C18.2077 22.7498 18.2698 23.0232 18.2772 23.2967C18.3037 23.9681 18.4007 24.6348 18.5665 25.286C18.9072 26.7476 19.4981 28.1394 20.3129 29.3998C20.9166 30.3066 21.623 31.1409 22.4179 31.8859C23.2586 32.6737 24.2021 33.3439 25.2229 33.878C26.2625 34.4301 27.3751 34.8321 28.5276 35.0718C29.2606 35.2238 30.0044 35.3168 30.7523 35.35C31.5494 35.3916 32.3401 35.3055 33.1317 35.1988C33.8255 35.1022 34.5098 34.9471 35.1775 34.7353C36.434 34.3375 37.622 33.7491 38.7001 32.9909C39.6455 32.3275 40.4992 31.5419 41.239 30.6549C42.3125 29.3895 43.1219 27.9221 43.6194 26.3389C43.979 25.1998 44.2331 24.0382 44.1997 22.8314C44.1904 22.6636 44.195 22.494 44.195 22.3244ZM46.8304 15.8606C46.8325 15.8353 46.8325 15.8099 46.8304 15.7847C46.4999 14.7976 46.0719 13.8458 45.5531 12.9435C44.9873 11.9231 44.3139 10.9663 43.5443 10.0894C43.0651 9.55079 42.6034 8.99276 42.025 8.54873C41.4781 8.12791 40.959 7.66908 40.4028 7.26215C39.4091 6.53356 38.3144 5.98109 37.1808 5.50093C36.2776 5.13121 35.3407 4.84995 34.3831 4.6611C33.546 4.47657 32.6913 4.38179 31.8341 4.37838C31.5716 4.37838 31.3103 4.37838 31.0479 4.37838C30.0684 4.36572 29.0903 4.45897 28.1308 4.65646C26.6467 4.94715 25.2061 5.42755 23.8445 6.08583C21.9872 6.97901 20.3111 8.20811 18.9011 9.71119C18.1769 10.4841 17.5296 11.3258 16.9684 12.2242C16.301 13.2957 15.8282 14.4544 15.4352 15.6483C15.4219 15.7471 15.4219 15.8471 15.4352 15.9459H15.7689C16.123 15.9459 16.478 15.9459 16.8321 15.9459C17.2418 15.9459 17.5672 16.1267 17.8518 16.4094C17.9102 16.4678 17.9574 16.5383 18.0223 16.6171C19.1847 14.0586 20.8283 12.1343 22.8249 10.6844C24.8954 9.16514 27.3444 8.24565 29.9032 8.02688C32.6404 7.7831 35.2852 8.23829 37.7407 9.51001C40.7551 11.0728 42.9798 13.4168 44.4147 16.542C44.8198 15.9598 45.3751 15.818 46.0109 15.8606C46.2807 15.8727 46.556 15.8606 46.8304 15.8606ZM16.326 24.7234C16.3403 24.6748 16.3503 24.6252 16.3557 24.5749C16.3557 22.3169 16.3516 20.0586 16.3436 17.7999C16.342 17.7849 16.3362 17.7708 16.3269 17.7591C16.3129 17.743 16.2974 17.7284 16.2806 17.7154C16.0544 17.721 15.8115 17.67 15.5844 17.7516C15.5019 18.0983 15.4852 24.1625 15.5622 24.7234H16.326ZM46.8452 24.6408V17.7136H46.0415C46.0415 17.8118 46.0304 17.8861 46.0304 17.9611C46.0304 20.1636 46.0335 22.3664 46.0398 24.5694C46.0398 24.5824 46.0527 24.5954 46.062 24.6075C46.0712 24.6195 46.0823 24.6297 46.0925 24.6408H46.8452Z" fill="#D1D3D6"/>
<path d="M32.0621 17.3187C32.2883 16.7542 32.8139 16.783 33.2672 16.695C34.4193 16.4726 35.5845 16.4985 36.7544 16.4966C37.4487 16.4966 38.1448 16.4799 38.8354 16.5188C39.5501 16.5596 40.2676 16.6115 40.9674 16.783C41.0558 16.8057 41.1428 16.8337 41.228 16.8665C41.5885 16.9989 41.6914 17.1278 41.6914 17.5087C41.6914 18.5716 41.6914 19.6338 41.6914 20.6967C41.6914 20.9433 41.6914 21.1898 41.6914 21.4381C41.6858 21.7866 41.5867 21.9321 41.252 22.0497C41.0528 22.1263 40.8468 22.1831 40.6365 22.2194C40.2583 22.2723 39.8755 22.2898 39.4955 22.3325C38.0225 22.5011 36.5439 22.4252 35.0692 22.4028C34.305 22.3944 33.5436 22.3052 32.7981 22.1369C32.6945 22.1116 32.5931 22.0778 32.4951 22.0359C32.2058 21.921 32.0714 21.7106 32.0761 21.3937C32.0853 20.731 32.0761 20.0683 32.0761 19.4058V18.9117C31.5198 18.8822 30.9877 18.9052 30.428 18.8951C30.4177 19.0351 30.4029 19.1527 30.402 19.2713C30.402 19.9646 30.3908 20.6615 30.402 21.3501C30.4094 21.7079 30.2703 21.9386 29.9385 22.0516C29.7684 22.1172 29.5937 22.1699 29.4157 22.2091C29.1302 22.2612 28.8409 22.2907 28.5517 22.3204C26.9759 22.4808 25.3852 22.44 23.8019 22.4038C23.0419 22.3863 22.2762 22.3306 21.5309 22.1407C21.4117 22.1161 21.2946 22.0823 21.1806 22.0396C20.9386 21.9359 20.7838 21.7746 20.7848 21.4836C20.7915 20.1434 20.7915 18.8033 20.7848 17.4633C20.7848 17.1518 20.935 16.9738 21.2056 16.8803C21.4048 16.805 21.6106 16.748 21.8202 16.7098C22.1678 16.656 22.52 16.6366 22.8685 16.5967C24.4193 16.4188 25.9738 16.504 27.5265 16.5263C28.2456 16.5222 28.962 16.6106 29.6585 16.7895C30.1377 16.922 30.0942 16.8108 30.427 17.3223L32.0621 17.3187ZM21.5504 17.5568V21.2908C22.5357 21.7652 28.2059 21.807 29.5621 21.326C29.6196 20.5846 29.5983 17.897 29.5288 17.5401C28.2175 17.3225 26.8894 17.2236 25.5605 17.2445C24.2321 17.2491 22.9057 17.3039 21.5504 17.5568ZM32.9029 21.3862C33.2884 21.4307 33.626 21.4474 33.9541 21.5123C34.6799 21.656 35.4187 21.5994 36.1501 21.6587C36.9574 21.7245 37.774 21.6707 38.587 21.6115C39.259 21.5633 39.9293 21.5326 40.593 21.4104C40.9312 21.3483 40.936 21.3529 40.9377 21.0035C40.9377 20.1719 40.9377 19.3405 40.9377 18.5096C40.9377 18.2787 40.9377 18.0461 40.9377 17.8164C40.9377 17.5865 40.9082 17.5596 40.6783 17.5188C40.4075 17.4716 40.135 17.4382 39.8616 17.4131C39.1923 17.3539 38.523 17.2732 37.852 17.2537C36.7925 17.2217 35.7322 17.2443 34.6753 17.3215C34.0811 17.3669 33.498 17.453 32.9038 17.5531L32.9029 21.3862Z" fill="#D1D3D6"/>
<path d="M23.8799 27.9986L24.9524 27.8271C25.161 28.198 25.3473 28.577 25.5808 28.9265C26.0443 29.6255 26.7451 30.0315 27.4793 30.4004C28.2134 30.7693 29.0023 30.938 29.7967 31.09C30.2185 31.169 30.648 31.2001 31.0768 31.1827C32.6304 31.1243 34.1358 30.8574 35.5326 30.1185C36.125 29.8062 36.6645 29.427 37.0798 28.9052C37.3152 28.6094 37.4756 28.2563 37.6879 27.8976H38.727C38.7109 27.9915 38.689 28.0845 38.6612 28.1756C38.2728 29.1861 37.5219 29.8711 36.6135 30.4004C35.7593 30.9125 34.8286 31.2846 33.8567 31.5025C33.3664 31.6064 32.8649 31.6601 32.3736 31.7639C31.7636 31.8919 31.1482 31.8566 30.5373 31.8417C28.9707 31.8047 27.4784 31.4479 26.1139 30.6608C25.2898 30.1862 24.5992 29.5634 24.1616 28.7004C24.0569 28.4964 23.9893 28.2767 23.8799 27.9986Z" fill="#D1D3D6"/>
<path d="M25.3091 17.7959C25.6475 17.7959 25.9868 17.7959 26.3288 17.7959C27.0518 17.8061 27.4921 18.15 27.5941 18.8628C27.6664 19.272 27.6531 19.6919 27.5552 20.0957C27.4069 20.6379 27.0445 21.0031 26.5049 21.0226C25.6892 21.0477 24.8707 21.0487 24.055 21.0226C23.4747 21.0041 23.0112 20.4804 23.0001 19.8946C22.994 19.5708 22.994 19.2472 23.0001 18.9241C23.0029 18.6293 23.1209 18.3473 23.3287 18.1383C23.5365 17.9294 23.8178 17.8097 24.1125 17.8051C24.5129 17.7885 24.9134 17.8051 25.3175 17.8051L25.3091 17.7959Z" fill="#D1D3D6"/>
<path d="M37.2552 21.0366C36.8408 21.0366 36.421 21.0477 36.0112 21.0366C35.7342 21.0221 35.4722 20.9063 35.2751 20.7111C35.0779 20.5158 34.9596 20.255 34.9425 19.9781C34.9248 19.6072 34.9285 19.2364 34.9425 18.8722C34.9522 18.7116 35.0002 18.5555 35.0824 18.4172C35.1646 18.2789 35.2787 18.1622 35.4152 18.0768C35.6664 17.8987 35.9675 17.8043 36.2754 17.8071C36.9243 17.8071 37.5666 17.8071 38.2118 17.8071C38.5341 17.7994 38.85 17.8971 39.1118 18.0852C39.2447 18.1771 39.3538 18.2992 39.4301 18.4415C39.5066 18.5837 39.5481 18.7423 39.5513 18.9037C39.5615 19.2745 39.5642 19.6453 39.5513 20.0095C39.5318 20.5129 39.0516 21.0061 38.5446 21.0293C38.1154 21.0487 37.6843 21.0293 37.2543 21.0293L37.2552 21.0366Z" fill="#D1D3D6"/>
</g>
</g>
<defs>
<clipPath id="clip0_223_983">
<rect width="40" height="41" fill="white" transform="translate(10)"/>
</clipPath>
</defs>
</svg>
