<svg width="40" height="40" viewBox="0 0 40 40" fill="none" xmlns="http://www.w3.org/2000/svg" style="border-radius: 6px; overflow: hidden;">
  <rect width="40" height="40" fill="white"/>
<g clip-path="url(#clip0_2123_185)">
<path d="M34.0454 17.737C34.2223 17.737 34.3575 17.7326 34.4913 17.737C34.7271 17.7395 34.9524 17.8343 35.1191 18.001C35.2859 18.1677 35.3806 18.3931 35.3831 18.6289C35.3906 19.654 35.3906 20.6788 35.3831 21.7034C35.3831 22.2816 34.9944 22.6696 34.417 22.6949C34.3062 22.6993 34.194 22.6949 34.0625 22.6949C34.0328 22.9238 33.9956 23.1489 33.9763 23.3764C33.95 23.6298 33.8329 23.8652 33.6465 24.039C33.4602 24.2127 33.2172 24.3132 32.9626 24.3217C32.4698 24.347 31.9741 24.3314 31.4806 24.3217C31.3507 24.3079 31.2222 24.283 31.0964 24.2474C30.2321 27.0232 28.5867 29.2156 26.1282 30.7585C24.1097 32.0219 21.8846 32.5956 19.4997 32.4804C17.0531 32.3623 14.854 31.5567 12.9217 30.042C10.9894 28.5274 9.69477 26.6018 8.97313 24.2726C8.71113 24.3668 8.43396 24.4117 8.15562 24.4049C7.81004 24.393 7.46297 24.4124 7.11516 24.399C6.69748 24.3826 6.1936 24.1151 6.06577 23.6209C6.03781 23.5147 6.02162 23.4058 6.01747 23.2961C6.01004 23.0635 6.01747 22.8301 6.01747 22.5633C5.87923 22.5633 5.75958 22.5633 5.63918 22.5633C5.01639 22.5551 4.62176 22.1717 4.61804 21.5511C4.61209 20.576 4.62844 19.6002 4.61135 18.6244C4.60169 18.0611 5.08253 17.6337 5.6102 17.5988C5.73208 17.5914 5.85471 17.5988 5.96767 17.5988C5.98848 17.5616 6.01152 17.5401 6.01003 17.52C5.95281 16.6185 6.22258 15.7743 6.50128 14.9397C6.99756 13.4573 7.76464 12.0799 8.76355 10.8774C9.80494 9.61098 11.0536 8.53041 12.4565 7.68167C13.3297 7.15552 14.2543 6.71974 15.2159 6.38109C15.9424 6.12919 16.6835 5.92171 17.4351 5.75978C17.9107 5.65276 18.4094 5.65648 18.8917 5.57696C19.4937 5.47886 20.0972 5.50264 20.6992 5.52345C21.4086 5.54982 22.1144 5.63659 22.8091 5.78282C23.5514 5.93362 24.2807 6.14236 24.9904 6.4071C25.7725 6.70101 26.5258 7.06648 27.2407 7.49885C28.3705 8.17989 29.4019 9.01202 30.3064 9.97219C31.1047 10.8266 31.8029 11.7694 32.3873 12.7822C32.9975 13.8227 33.4434 14.9374 33.8068 16.0857C33.951 16.5412 34.0662 17.005 34.0298 17.4918C34.029 17.5609 34.0387 17.633 34.0454 17.737ZM30.4231 20.9982C30.4231 20.3352 30.4179 19.676 30.2797 19.0183C30.0968 18.1063 29.7994 17.2211 29.3945 16.3837C28.9654 15.5249 28.4249 14.7265 27.787 14.0092C27.3141 13.4737 26.7843 12.9912 26.207 12.5704C25.227 11.847 24.1263 11.3035 22.9563 10.9651C21.4709 10.5194 19.9028 10.4219 18.3737 10.6804C17.5156 10.8162 16.6783 11.0615 15.8826 11.4103C14.2811 12.0995 12.8808 13.184 11.8129 14.5621C10.9718 15.6374 10.3502 16.8674 9.98313 18.1822C9.72072 19.1397 9.58774 20.128 9.58775 21.1208C9.58775 21.3393 9.63754 21.5585 9.64349 21.7778C9.66472 22.316 9.74243 22.8506 9.87537 23.3726C10.1486 24.5445 10.6223 25.6604 11.2755 26.6709C11.7596 27.398 12.3259 28.0669 12.9633 28.6642C13.6373 29.2958 14.3938 29.833 15.2122 30.2613C16.0457 30.704 16.9377 31.0263 17.8617 31.2185C18.4493 31.3403 19.0458 31.4149 19.6453 31.4415C20.2845 31.4749 20.9184 31.4058 21.5531 31.3203C22.1093 31.2428 22.658 31.1185 23.1933 30.9487C24.2007 30.6297 25.1532 30.158 26.0174 29.55C26.7755 29.0181 27.46 28.3884 28.053 27.6772C28.9138 26.6627 29.5627 25.4862 29.9616 24.2169C30.2499 23.3035 30.4536 22.3723 30.4268 21.4047C30.4194 21.2702 30.4231 21.1342 30.4231 20.9982ZM32.536 15.8159C32.5377 15.7956 32.5377 15.7752 32.536 15.7549C32.271 14.9636 31.9279 14.2005 31.5119 13.4771C31.0583 12.659 30.5184 11.8919 29.9014 11.1888C29.5171 10.757 29.147 10.3096 28.6833 9.95361C28.2448 9.6162 27.8286 9.24832 27.3827 8.92206C26.586 8.33791 25.7083 7.89497 24.7994 7.51C24.0752 7.21357 23.3241 6.98807 22.5564 6.83667C21.8851 6.68871 21.2 6.61273 20.5126 6.60999C20.3023 6.60999 20.0927 6.60999 19.8824 6.60999C19.0971 6.59985 18.3129 6.6746 17.5436 6.83295C16.3537 7.066 15.1987 7.45116 14.1071 7.97895C12.618 8.69505 11.2742 9.68051 10.1437 10.8856C9.56302 11.5053 9.04407 12.1801 8.59411 12.9004C8.05901 13.7595 7.67998 14.6885 7.36487 15.6457C7.35419 15.7249 7.35419 15.8051 7.36487 15.8843H7.63242C7.91632 15.8843 8.20096 15.8843 8.48486 15.8843C8.81335 15.8843 9.07421 16.0292 9.30236 16.2559C9.34919 16.3027 9.38709 16.3592 9.43911 16.4223C10.3711 14.3711 11.6887 12.8283 13.2896 11.6659C14.9496 10.4478 16.9131 9.71058 18.9646 9.53519C21.1592 9.33973 23.2795 9.70464 25.2482 10.7243C27.6651 11.9773 29.4488 13.8566 30.5992 16.3621C30.924 15.8954 31.3692 15.7817 31.879 15.8159C32.0953 15.8255 32.316 15.8159 32.536 15.8159ZM8.07908 22.9215C8.09059 22.8827 8.09855 22.8429 8.10286 22.8026C8.10286 20.9922 8.09964 19.1815 8.0932 17.3706C8.09194 17.3587 8.0873 17.3473 8.07982 17.3379C8.06862 17.3251 8.05617 17.3134 8.04266 17.303C7.86132 17.3075 7.66661 17.2666 7.48452 17.332C7.41838 17.6099 7.405 22.4719 7.46669 22.9215H8.07908ZM32.5479 22.8554V17.3015H31.9035C31.9035 17.3803 31.8946 17.4398 31.8946 17.5C31.8946 19.2658 31.8971 21.0318 31.902 22.7982C31.902 22.8086 31.9124 22.819 31.9199 22.8286C31.9273 22.8383 31.9362 22.8465 31.9444 22.8554H32.5479Z" fill="black"/>
<path d="M20.6956 16.985C20.877 16.5324 21.2984 16.5555 21.6618 16.4849C22.5856 16.3066 23.5198 16.3274 24.4577 16.3259C25.0143 16.3259 25.5725 16.3125 26.1261 16.3437C26.6991 16.3764 27.2744 16.418 27.8355 16.5555C27.9063 16.5737 27.976 16.5961 28.0443 16.6224C28.3334 16.7286 28.4159 16.8319 28.4159 17.1373C28.4159 17.9895 28.4159 18.8411 28.4159 19.6933C28.4159 19.891 28.4159 20.0886 28.4159 20.2877C28.4114 20.5671 28.3319 20.6838 28.0636 20.7781C27.904 20.8395 27.7387 20.885 27.5702 20.9141C27.2669 20.9565 26.96 20.9706 26.6553 21.0048C25.4744 21.14 24.289 21.0791 23.1066 21.0612C22.4938 21.0544 21.8835 20.9829 21.2857 20.848C21.2026 20.8277 21.1214 20.8006 21.0427 20.767C20.8108 20.6749 20.7031 20.5062 20.7068 20.2521C20.7142 19.7208 20.7068 19.1895 20.7068 18.6583V18.2622C20.2609 18.2385 19.8343 18.257 19.3854 18.2489C19.3772 18.3611 19.3653 18.4554 19.3646 18.5505C19.3646 19.1063 19.3557 19.6651 19.3646 20.2172C19.3705 20.504 19.2591 20.689 18.993 20.7796C18.8566 20.8322 18.7165 20.8744 18.5738 20.9059C18.3449 20.9476 18.1131 20.9713 17.8812 20.9951C16.6178 21.1237 15.3424 21.091 14.0731 21.062C13.4637 21.0479 12.8498 21.0033 12.2523 20.851C12.1567 20.8313 12.0627 20.8042 11.9713 20.77C11.7774 20.6868 11.6533 20.5575 11.654 20.3242C11.6594 19.2497 11.6594 18.1753 11.654 17.1009C11.654 16.8512 11.7744 16.7085 11.9914 16.6335C12.1512 16.5731 12.3161 16.5274 12.4841 16.4968C12.7628 16.4537 13.0452 16.4381 13.3247 16.4061C14.568 16.2635 15.8144 16.3318 17.0592 16.3497C17.6357 16.3464 18.2102 16.4173 18.7686 16.5607C19.1528 16.6669 19.1178 16.5778 19.3847 16.9879L20.6956 16.985ZM12.2679 17.1759V20.1696C13.0579 20.55 17.604 20.5835 18.6913 20.1978C18.7373 19.6034 18.7202 17.4486 18.6645 17.1625C17.6133 16.988 16.5484 16.9087 15.4829 16.9255C14.4179 16.9292 13.3544 16.9731 12.2679 17.1759ZM21.3697 20.2461C21.6789 20.2818 21.9494 20.2952 22.2125 20.3472C22.7944 20.4624 23.3867 20.417 23.9731 20.4646C24.6204 20.5173 25.2752 20.4742 25.927 20.4267C26.4658 20.3881 27.0031 20.3635 27.5352 20.2655C27.8065 20.2157 27.8102 20.2194 27.8117 19.9393C27.8117 19.2725 27.8117 18.606 27.8117 17.9398C27.8117 17.7547 27.8117 17.5682 27.8117 17.384C27.8117 17.1997 27.7879 17.1781 27.6036 17.1454C27.3866 17.1076 27.1681 17.0808 26.9488 17.0607C26.4123 17.0132 25.8757 16.9485 25.3376 16.9329C24.4883 16.9072 23.6382 16.9253 22.7907 16.9872C22.3143 17.0236 21.8469 17.0927 21.3705 17.1729L21.3697 20.2461Z" fill="black"/>
<path d="M14.1355 25.5476L14.9954 25.4102C15.1626 25.7074 15.312 26.0114 15.4992 26.2916C15.8708 26.8519 16.4327 27.1775 17.0213 27.4733C17.6099 27.769 18.2424 27.9043 18.8793 28.0262C19.2175 28.0895 19.5618 28.1145 19.9056 28.1005C21.1512 28.0537 22.3582 27.8396 23.4781 27.2473C23.953 26.9969 24.3856 26.6929 24.7185 26.2745C24.9073 26.0374 25.0359 25.7543 25.2061 25.4666H26.0392C26.0263 25.542 26.0087 25.6165 25.9864 25.6896C25.675 26.4997 25.073 27.0489 24.3447 27.4733C23.6598 27.8839 22.9136 28.1822 22.1344 28.3569C21.7413 28.4401 21.3392 28.4832 20.9453 28.5665C20.4563 28.669 19.9629 28.6408 19.4731 28.6289C18.2171 28.5992 17.0206 28.3131 15.9266 27.6821C15.2659 27.3016 14.7122 26.8022 14.3614 26.1102C14.2774 25.9467 14.2232 25.7706 14.1355 25.5476Z" fill="black"/>
<path d="M15.2815 17.3677C15.5528 17.3677 15.8248 17.3677 16.099 17.3677C16.6787 17.3759 17.0317 17.6516 17.1135 18.2231C17.1714 18.5512 17.1608 18.8877 17.0823 19.2115C16.9634 19.6463 16.6728 19.9391 16.2402 19.9547C15.5862 19.9748 14.93 19.9755 14.276 19.9547C13.8107 19.9399 13.4391 19.52 13.4302 19.0503C13.4253 18.7906 13.4253 18.5313 13.4302 18.2721C13.4325 18.0358 13.5271 17.8098 13.6937 17.6422C13.8603 17.4746 14.0858 17.3788 14.3221 17.3751C14.6431 17.3617 14.9642 17.3751 15.2882 17.3751L15.2815 17.3677Z" fill="black"/>
<path d="M24.859 19.9656C24.5268 19.9656 24.1901 19.9745 23.8616 19.9656C23.6395 19.954 23.4295 19.861 23.2714 19.7045C23.1134 19.548 23.0185 19.3388 23.0047 19.1169C22.9906 18.8196 22.9936 18.5223 23.0047 18.2302C23.0126 18.1014 23.0511 17.9764 23.117 17.8655C23.1829 17.7546 23.2744 17.661 23.3838 17.5926C23.5852 17.4498 23.8265 17.3741 24.0735 17.3763C24.5937 17.3763 25.1087 17.3763 25.626 17.3763C25.8844 17.3702 26.1377 17.4485 26.3476 17.5993C26.4541 17.6729 26.5416 17.7708 26.6028 17.8849C26.6641 17.999 26.6973 18.126 26.6999 18.2555C26.7081 18.5528 26.7103 18.8501 26.6999 19.1421C26.6843 19.5457 26.2993 19.9411 25.8928 19.9596C25.5487 19.9752 25.2031 19.9596 24.8583 19.9596L24.859 19.9656Z" fill="black"/>
</g>
<defs>
<clipPath id="clip0_2123_185">
<rect width="30.7785" height="26.99" fill="white" transform="translate(4.61078 5.50488)"/>
</clipPath>
</defs>
</svg>
