<svg width="40" height="41" viewBox="0 0 40 41" fill="none" xmlns="http://www.w3.org/2000/svg">
<rect y="0.5" width="40" height="40" rx="20" fill="#D1D3D6"/>
<g clip-path="url(#clip0_2119_12)">
<path d="M34.0455 18.2372C34.2224 18.2372 34.3577 18.2327 34.4914 18.2372C34.7272 18.2397 34.9526 18.3344 35.1193 18.5011C35.286 18.6679 35.3807 18.8932 35.3833 19.129C35.3907 20.1541 35.3907 21.179 35.3833 22.2036C35.3833 22.7818 34.9946 23.1697 34.4171 23.195C34.3064 23.1994 34.1941 23.195 34.0626 23.195C34.0329 23.4239 33.9957 23.6491 33.9764 23.8765C33.9501 24.1299 33.833 24.3653 33.6467 24.5391C33.4603 24.7129 33.2174 24.8133 32.9627 24.8218C32.47 24.8471 31.9742 24.8315 31.4808 24.8218C31.3508 24.808 31.2223 24.7831 31.0965 24.7475C30.2322 27.5233 28.5868 29.7157 26.1283 31.2586C24.1098 32.522 21.8847 33.0958 19.4998 32.9806C17.0532 32.8624 14.8541 32.0568 12.9218 30.5422C10.9895 29.0275 9.69489 27.1019 8.97325 24.7728C8.71125 24.867 8.43408 24.9118 8.15574 24.9051C7.81016 24.8932 7.46309 24.9125 7.11528 24.8991C6.69761 24.8828 6.19372 24.6152 6.06589 24.121C6.03794 24.0148 6.02174 23.9059 6.01759 23.7962C6.01016 23.5636 6.01759 23.3302 6.01759 23.0634C5.87936 23.0634 5.7597 23.0634 5.6393 23.0634C5.01651 23.0553 4.62188 22.6718 4.61816 22.0512C4.61222 21.0761 4.62856 20.1003 4.61147 19.1245C4.60181 18.5612 5.08265 18.1339 5.61032 18.0989C5.7322 18.0915 5.85483 18.0989 5.96779 18.0989C5.9886 18.0618 6.01164 18.0402 6.01016 18.0201C5.95293 17.1187 6.22271 16.2744 6.5014 15.4398C6.99768 13.9574 7.76476 12.58 8.76367 11.3775C9.80507 10.1111 11.0538 9.03053 12.4566 8.1818C13.3298 7.65564 14.2544 7.21986 15.2161 6.88121C15.9425 6.62931 16.6836 6.42183 17.4352 6.25991C17.9109 6.15289 18.4095 6.1566 18.8919 6.07708C19.4939 5.97898 20.0973 6.00276 20.6993 6.02357C21.4087 6.04994 22.1146 6.13671 22.8092 6.28294C23.5515 6.43375 24.2808 6.64248 24.9905 6.90723C25.7726 7.20114 26.5259 7.5666 27.2409 7.99897C28.3706 8.68001 29.402 9.51214 30.3065 10.4723C31.1048 11.3268 31.803 12.2695 32.3875 13.2823C32.9976 14.3228 33.4435 15.4376 33.807 16.5858C33.9511 17.0414 34.0663 17.5051 34.0299 17.9919C34.0292 18.061 34.0388 18.1331 34.0455 18.2372ZM30.4232 21.4983C30.4232 20.8353 30.418 20.1761 30.2798 19.5184C30.097 18.6064 29.7996 17.7212 29.3946 16.8838C28.9656 16.025 28.4251 15.2267 27.7871 14.5093C27.3142 13.9738 26.7844 13.4913 26.2071 13.0705C25.2271 12.3471 24.1265 11.8036 22.9564 11.4652C21.471 11.0195 19.9029 10.9221 18.3739 11.1806C17.5157 11.3163 16.6785 11.5616 15.8827 11.9104C14.2812 12.5996 12.8809 13.6841 11.813 15.0622C10.9719 16.1375 10.3503 17.3675 9.98325 18.6823C9.72084 19.6398 9.58787 20.6281 9.58787 21.6209C9.58787 21.8394 9.63767 22.0586 9.64361 22.2779C9.66484 22.8162 9.74256 23.3507 9.87549 23.8728C10.1487 25.0446 10.6224 26.1605 11.2757 27.171C11.7597 27.8981 12.3261 28.567 12.9634 29.1643C13.6374 29.7959 14.3939 30.3332 15.2123 30.7614C16.0458 31.2041 16.9378 31.5264 17.8618 31.7186C18.4495 31.8404 19.0459 31.915 19.6455 31.9416C20.2846 31.975 20.9185 31.9059 21.5532 31.8204C22.1094 31.7429 22.6581 31.6186 23.1934 31.4488C24.2008 31.1298 25.1533 30.6581 26.0176 30.0502C26.7756 29.5183 27.4601 28.8885 28.0532 28.1773C28.9139 27.1628 29.5628 25.9863 29.9617 24.717C30.25 23.8037 30.4537 22.8724 30.4269 21.9048C30.4195 21.7703 30.4232 21.6343 30.4232 21.4983ZM32.5361 16.316C32.5378 16.2957 32.5378 16.2753 32.5361 16.2551C32.2711 15.4637 31.928 14.7006 31.512 13.9772C31.0584 13.1591 30.5185 12.392 29.9015 11.6889C29.5173 11.2571 29.1471 10.8097 28.6834 10.4537C28.2449 10.1163 27.8287 9.74844 27.3828 9.42218C26.5861 8.83803 25.7084 8.39509 24.7995 8.01012C24.0754 7.7137 23.3242 7.4882 22.5565 7.33679C21.8853 7.18884 21.2001 7.11285 20.5128 7.11012C20.3024 7.11012 20.0929 7.11012 19.8825 7.11012C19.0972 7.09997 18.313 7.17473 17.5437 7.33307C16.3538 7.56613 15.1988 7.95129 14.1072 8.47907C12.6181 9.19517 11.2743 10.1806 10.1438 11.3857C9.56315 12.0054 9.04419 12.6802 8.59423 13.4005C8.05913 14.2596 7.68011 15.1886 7.36499 16.1458C7.35431 16.225 7.35431 16.3052 7.36499 16.3844H7.63254C7.91644 16.3844 8.20108 16.3844 8.48498 16.3844C8.81347 16.3844 9.07433 16.5293 9.30249 16.756C9.34931 16.8028 9.38721 16.8593 9.43924 16.9225C10.3712 14.8712 11.6889 13.3284 13.2897 12.166C14.9497 10.9479 16.9132 10.2107 18.9647 10.0353C21.1593 9.83985 23.2797 10.2048 25.2484 11.2244C27.6652 12.4774 29.4489 14.3567 30.5993 16.8623C30.9241 16.3955 31.3693 16.2818 31.8791 16.316C32.0954 16.3257 32.3161 16.316 32.5361 16.316ZM8.0792 23.4217C8.09071 23.3828 8.09867 23.343 8.10298 23.3027C8.10298 21.4923 8.09976 19.6817 8.09332 17.8708C8.09206 17.8588 8.08742 17.8475 8.07994 17.8381C8.06874 17.8252 8.0563 17.8135 8.04278 17.8031C7.86144 17.8076 7.66673 17.7667 7.48465 17.8321C7.4185 18.1101 7.40513 22.972 7.46681 23.4217H8.0792ZM32.548 23.3555V17.8016H31.9036C31.9036 17.8804 31.8947 17.9399 31.8947 18.0001C31.8947 19.7659 31.8972 21.532 31.9022 23.2983C31.9022 23.3087 31.9126 23.3191 31.92 23.3288C31.9274 23.3384 31.9363 23.3466 31.9445 23.3555H32.548Z" fill="black"/>
<path d="M20.6957 17.485C20.877 17.0324 21.2984 17.0555 21.6619 16.9849C22.5856 16.8066 23.5198 16.8274 24.4577 16.8259C25.0144 16.8259 25.5725 16.8125 26.1262 16.8437C26.6992 16.8764 27.2744 16.918 27.8355 17.0555C27.9064 17.0737 27.9761 17.0961 28.0444 17.1224C28.3335 17.2286 28.416 17.3319 28.416 17.6373C28.416 18.4895 28.416 19.3411 28.416 20.1933C28.416 20.391 28.416 20.5886 28.416 20.7877C28.4115 21.0671 28.332 21.1838 28.0637 21.2781C27.904 21.3395 27.7388 21.385 27.5702 21.4141C27.267 21.4565 26.9601 21.4706 26.6554 21.5048C25.4744 21.64 24.289 21.5791 23.1066 21.5612C22.4939 21.5544 21.8835 21.4829 21.2858 21.348C21.2027 21.3277 21.1214 21.3006 21.0428 21.267C20.8109 21.1749 20.7031 21.0062 20.7069 20.7521C20.7143 20.2208 20.7069 19.6895 20.7069 19.1583V18.7622C20.2609 18.7385 19.8343 18.757 19.3855 18.7489C19.3773 18.8611 19.3654 18.9554 19.3647 19.0505C19.3647 19.6063 19.3557 20.1651 19.3647 20.7172C19.3706 21.004 19.2591 21.189 18.9931 21.2796C18.8567 21.3322 18.7166 21.3744 18.5739 21.4059C18.345 21.4476 18.1131 21.4713 17.8812 21.4951C16.6178 21.6237 15.3425 21.591 14.0731 21.562C13.4637 21.5479 12.8498 21.5033 12.2523 21.351C12.1567 21.3313 12.0628 21.3042 11.9714 21.27C11.7774 21.1868 11.6533 21.0575 11.6541 20.8242C11.6595 19.7497 11.6595 18.6753 11.6541 17.6009C11.6541 17.3512 11.7745 17.2085 11.9915 17.1335C12.1512 17.0731 12.3162 17.0274 12.4842 16.9968C12.7629 16.9537 13.0453 16.9381 13.3247 16.9061C14.5681 16.7635 15.8144 16.8318 17.0593 16.8497C17.6358 16.8464 18.2102 16.9173 18.7686 17.0607C19.1528 17.1669 19.1179 17.0778 19.3847 17.4879L20.6957 17.485ZM12.2679 17.6759V20.6696C13.0579 21.05 17.604 21.0835 18.6913 20.6978C18.7374 20.1034 18.7203 17.9486 18.6646 17.6625C17.6133 17.488 16.5485 17.4087 15.483 17.4255C14.418 17.4292 13.3545 17.4731 12.2679 17.6759ZM21.3698 20.7461C21.6789 20.7818 21.9495 20.7952 22.2126 20.8472C22.7945 20.9624 23.3868 20.917 23.9732 20.9646C24.6205 21.0173 25.2752 20.9742 25.927 20.9267C26.4658 20.8881 27.0032 20.8635 27.5353 20.7655C27.8065 20.7157 27.8103 20.7194 27.8117 20.4393C27.8117 19.7725 27.8117 19.106 27.8117 18.4398C27.8117 18.2547 27.8117 18.0682 27.8117 17.884C27.8117 17.6997 27.788 17.6781 27.6037 17.6454C27.3866 17.6076 27.1681 17.5808 26.9489 17.5607C26.4123 17.5132 25.8757 17.4485 25.3377 17.4329C24.4883 17.4072 23.6382 17.4253 22.7908 17.4872C22.3144 17.5236 21.8469 17.5927 21.3705 17.6729L21.3698 20.7461Z" fill="black"/>
<path d="M14.1355 26.0478L14.9954 25.9103C15.1626 26.2076 15.312 26.5115 15.4992 26.7917C15.8708 27.3521 16.4327 27.6776 17.0213 27.9734C17.6099 28.2692 18.2424 28.4044 18.8793 28.5263C19.2175 28.5896 19.5618 28.6146 19.9056 28.6006C21.1512 28.5538 22.3582 28.3398 23.4781 27.7474C23.953 27.497 24.3856 27.193 24.7185 26.7746C24.9073 26.5375 25.0359 26.2544 25.2061 25.9668H26.0392C26.0263 26.0421 26.0087 26.1166 25.9864 26.1897C25.675 26.9998 25.073 27.549 24.3447 27.9734C23.6598 28.384 22.9136 28.6823 22.1344 28.857C21.7413 28.9403 21.3392 28.9834 20.9453 29.0666C20.4563 29.1692 19.9629 29.1409 19.4731 29.129C18.2171 29.0993 17.0206 28.8132 15.9266 28.1822C15.2659 27.8017 14.7122 27.3023 14.3614 26.6104C14.2774 26.4469 14.2232 26.2707 14.1355 26.0478Z" fill="black"/>
<path d="M15.2815 17.8678C15.5528 17.8678 15.8248 17.8678 16.099 17.8678C16.6787 17.876 17.0317 18.1517 17.1135 18.7232C17.1714 19.0513 17.1608 19.3879 17.0823 19.7117C16.9634 20.1464 16.6728 20.4392 16.2402 20.4548C15.5862 20.4749 14.93 20.4757 14.276 20.4548C13.8107 20.44 13.4391 20.0201 13.4302 19.5504C13.4253 19.2908 13.4253 19.0314 13.4302 18.7723C13.4325 18.536 13.5271 18.3099 13.6937 18.1423C13.8603 17.9748 14.0858 17.8789 14.3221 17.8752C14.6431 17.8619 14.9642 17.8752 15.2882 17.8752L15.2815 17.8678Z" fill="black"/>
<path d="M24.8591 20.4657C24.5269 20.4657 24.1903 20.4746 23.8618 20.4657C23.6397 20.4541 23.4296 20.3612 23.2716 20.2047C23.1135 20.0481 23.0186 19.839 23.0049 19.617C22.9907 19.3197 22.9937 19.0224 23.0049 18.7304C23.0127 18.6016 23.0512 18.4765 23.1171 18.3656C23.183 18.2547 23.2745 18.1611 23.3839 18.0927C23.5853 17.9499 23.8267 17.8742 24.0736 17.8764C24.5938 17.8764 25.1088 17.8764 25.6261 17.8764C25.8845 17.8703 26.1378 17.9486 26.3477 18.0994C26.4542 18.1731 26.5417 18.271 26.6029 18.3851C26.6642 18.4991 26.6975 18.6262 26.7 18.7556C26.7082 19.0529 26.7104 19.3502 26.7 19.6422C26.6844 20.0458 26.2994 20.4412 25.8929 20.4598C25.5488 20.4754 25.2032 20.4598 24.8584 20.4598L24.8591 20.4657Z" fill="black"/>
</g>
<defs>
<clipPath id="clip0_2119_12">
<rect width="30.7785" height="26.99" fill="white" transform="translate(4.61084 6.005)"/>
</clipPath>
</defs>
</svg>
