<svg width="247" height="41" viewBox="0 0 247 41" fill="none" xmlns="http://www.w3.org/2000/svg">
<rect width="246.924" height="40.7829" rx="20.3914" fill="#D9D9DA"/>
<rect x="10" y="9.3916" width="35" height="22" rx="11" fill="black"/>
<path d="M73.7263 27.802H69.0347L70.5031 20.4245H64.3432L62.8748 27.802H58.1475L61.9079 9H66.671L65.2385 16.0552H71.3984L72.7951 9H77.5225L73.7263 27.802Z" fill="black"/>
<path d="M84.7568 25.8681H84.6136C83.9331 27.6588 82.035 27.9811 80.6383 27.9811C77.809 27.9811 76.3049 27.2648 76.9853 23.8984C77.6299 20.7468 79.349 19.744 82.2857 19.744C83.4317 19.744 85.2224 19.744 85.3656 21.2124H85.5447L85.9745 19.1352C86.2252 17.9175 86.2968 17.1296 84.5061 17.1296C83.5033 17.1296 82.8229 17.3803 82.5722 18.5622H78.5253C79.349 14.4794 82.1424 14.4794 85.0433 14.4794C89.1977 14.4794 90.8093 15.0525 89.9139 19.565L88.2665 27.802H84.2196L84.7568 25.8681ZM81.0322 23.7551C80.7457 25.1877 81.8917 25.1877 82.5006 25.1877C84.1838 25.1877 84.7568 24.9728 85.0433 23.5761C85.2582 22.4658 84.3987 22.3584 83.0736 22.3584C82.0708 22.3584 81.2829 22.5375 81.0322 23.7551Z" fill="black"/>
<path d="M93.4953 14.6227H97.578L97.0766 16.6999H97.2557C98.0794 14.9092 99.4761 14.4794 101.231 14.4794C104.239 14.4794 105.636 15.8404 104.956 19.3143L104.347 22.3226C103.559 26.3337 101.911 27.9453 98.545 27.9453C97.0766 27.9453 95.8232 27.623 95.5366 25.7965H95.3576L93.8176 33.4605H89.7707L93.5311 14.5869L93.4953 14.6227ZM96.2529 21.2482C95.8232 23.4328 95.7157 24.6505 97.6138 24.6505C99.2612 24.6505 99.9417 24.2207 100.551 21.2482C101.052 18.6696 101.159 17.8101 99.0105 17.8101C97.2915 17.8101 96.8259 18.4547 96.2887 21.2482" fill="black"/>
<path d="M108.071 14.6227H112.118L111.617 16.6999H111.796C112.62 14.9092 114.016 14.4794 115.771 14.4794C118.744 14.4794 120.176 15.8404 119.496 19.3143L118.887 22.3226C118.063 26.3337 116.452 27.9453 113.085 27.9453C111.617 27.9453 110.363 27.623 110.077 25.7965H109.898L108.358 33.4605H104.275L108.071 14.5869V14.6227ZM110.793 21.2482C110.363 23.4328 110.256 24.6505 112.154 24.6505C113.837 24.6505 114.482 24.2207 115.091 21.2482C115.592 18.6696 115.664 17.8101 113.551 17.8101C111.832 17.8101 111.402 18.4547 110.829 21.2482" fill="black"/>
<path d="M128.091 28.9481C126.694 32.3861 125.262 33.6396 121.824 33.6396C121.358 33.6396 120.928 33.6038 120.463 33.568L121.072 30.5955C121.286 30.5955 121.537 30.6313 121.788 30.6313C123.471 30.6313 124.08 29.3062 124.474 27.802H122.289L121.251 14.6227H125.512L125.835 25.3309H125.871L130.025 14.6227H134.179L128.198 28.9481H128.091Z" fill="black"/>
<path d="M142.775 27.9453H138.083L141.843 9.10744H149.83L151.979 23.5761H152.158L154.772 9.10744H159.499L155.739 27.9453H147.681L145.604 13.4767H145.389L142.775 27.9453Z" fill="black"/>
<path d="M170.852 23.5402C170.458 25.51 169.599 26.656 168.417 27.3006C167.235 27.9453 165.695 28.0885 163.869 28.0885C158.998 28.0885 158.174 26.2979 159.177 21.3556C160.216 16.3059 161.612 14.6227 166.59 14.6227C171.246 14.6227 172.356 16.0194 171.282 21.3556L171.139 22.0719H163.117C162.651 24.3639 162.83 25.0802 164.513 25.0802C165.767 25.0802 166.59 24.937 166.877 23.5402H170.852ZM167.557 19.7082C167.951 17.7385 167.307 17.631 165.91 17.631C164.477 17.631 163.94 17.9892 163.546 19.7082H167.557Z" fill="black"/>
<path d="M180.2 19.8873C180.379 18.9561 180.629 17.9175 179.555 17.9175C178.337 17.9175 177.836 18.9561 177.621 20.0305L176.009 27.9453H171.962L174.577 14.766H178.516L178.122 16.6999H178.301C179.125 15.1957 180.307 14.6227 181.847 14.6227C184.676 14.6227 184.39 17.0938 183.924 19.4933L183.745 20.5319H180.092L180.235 19.9231L180.2 19.8873Z" fill="black"/>
<path d="M196.136 27.9453H192.054L192.627 25.6532H192.448C191.588 27.623 190.227 28.0885 188.437 28.0885C185.428 28.0885 184.032 26.7276 184.712 23.2537L185.321 20.2454C186.109 16.2343 187.756 14.6227 191.123 14.6227C192.627 14.6227 193.844 14.945 194.167 16.6641H194.346L195.85 9.14325H199.897L196.136 27.9453ZM190.514 24.7579C192.161 24.7579 192.806 24.3281 193.379 21.3556C193.88 18.8129 194.023 17.9175 191.875 17.9175C189.833 17.9175 189.654 18.7412 189.117 21.3556C188.472 24.5788 188.831 24.7579 190.514 24.7579Z" fill="black"/>
<path d="M202.475 27.9453H198.393L201.043 14.766H205.126L202.475 27.9453ZM205.555 12.4381H201.508L202.153 9.10744H206.2L205.52 12.4381H205.555Z" fill="black"/>
<path d="M211.465 14.766L210.999 17.2371H211.142C212.145 15.1241 213.434 14.6227 215.368 14.6227C218.09 14.6227 219.057 16.0194 218.484 18.8487L216.658 27.9453H212.611L214.258 19.8515C214.473 18.5622 214.258 17.9533 212.969 17.9533C211.142 17.9533 210.605 19.0994 210.283 20.711L208.814 27.9453H204.767L207.418 14.766H211.465Z" fill="black"/>
<path d="M222.961 29.0913C222.817 29.8076 222.961 30.2373 223.247 30.4164C223.534 30.5955 223.963 30.6313 224.465 30.6313C226.22 30.6313 226.649 30.309 227.008 28.4825L227.545 25.7607H227.402C226.542 27.3723 225.145 27.9095 223.57 27.9095C219.2 27.9095 219.379 25.0802 220.131 21.3198C220.991 17.058 221.994 14.5869 226.256 14.5869C228.01 14.5869 229.192 15.0167 229.264 17.0938H229.407L229.729 14.766H233.776L231.234 27.3723C230.267 32.2787 228.691 33.7829 223.928 33.7829C219.523 33.7829 218.377 33.2815 219.057 29.1271H222.889L222.961 29.0913ZM228.44 21.3556C229.049 18.3831 228.691 17.9175 227.008 17.9175C225.11 17.9175 224.859 18.3115 224.214 21.3556C223.677 24.0774 223.892 24.6146 225.647 24.6146C227.616 24.6146 228.01 23.6119 228.44 21.3556Z" fill="black"/>
</svg>
